<svg viewBox="0 0 48 48" fill="none" xmlns="http://www.w3.org/2000/svg" style="height:100%;width:100%" title="Curiosity Stream"><path fill-rule="evenodd" clip-rule="evenodd" d="M0 23.9996C0 10.7446 10.7454 0 24.0004 0C37.2554 0 48 10.7446 48 23.9996C48 37.2546 37.2554 48 24.0004 48C10.7454 48 0 37.2546 0 23.9996ZM21.948 37.904C21.948 39.1707 22.9745 40.1972 24.2428 40.1972C25.5111 40.1972 26.5391 39.1707 26.5391 37.904C26.5391 36.6342 25.5111 35.6077 24.2428 35.6077C22.9745 35.6077 21.948 36.6342 21.948 37.904ZM26.3605 29.9627C28.8062 29.1957 30.5612 27.0272 30.5612 24.5184V11H26.3605V24.5184C26.3605 25.5803 25.4357 26.4327 24.2814 26.4327C23.1263 26.4327 22.156 25.5803 22.156 24.5184V11H18V24.5184C18 27.0272 19.7095 29.1957 22.156 29.9627V34.2219H26.3605V29.9627Z" fill="url(#minilogo-82)"></path><defs><linearGradient id="minilogo-82" x1="-15.5044" y1="15.5044" x2="15.5044" y2="63.5044" gradientUnits="userSpaceOnUse"><stop stop-color="#ECC334"></stop><stop offset="1" stop-color="#EB8B4C"></stop></linearGradient></defs></svg>