<svg viewBox="0 0 85 61" fill="none" xmlns="http://www.w3.org/2000/svg" class="w-full h-full text-primary"><path d="M37.764 48h12.291a2 2 0 011.79 1.106l4 8A2 2 0 0154.054 60H33.764a2 2 0 01-1.79-2.894l4-8A2 2 0 0137.765 48z" stroke="#EEA83D" stroke-width="2"></path><path fill-rule="evenodd" clip-rule="evenodd" d="M16.71 2c-1.518 0-2.987.64-4.08 1.803-1.095 1.164-1.72 2.756-1.72 4.428V23a1 1 0 11-2 0V8.23c0-2.163.807-4.25 2.263-5.797C12.63.883 14.62 0 16.71 0h54.4c2.089 0 4.079.883 5.536 2.433C78.102 3.98 78.91 6.067 78.91 8.23V35a1 1 0 11-2 0V8.23c0-1.67-.626-3.263-1.72-4.427C74.095 2.64 72.626 2 71.11 2h-54.4zm8.162 46a1 1 0 011-1h42a1 1 0 110 2h-42a1 1 0 01-1-1zm25.184 1H37.764a1 1 0 00-.895.553l-4 8A1 1 0 0033.764 59h20.291a1 1 0 00.895-1.447l-4-8a1 1 0 00-.895-.553zm-12.292-2a3 3 0 00-2.684 1.658l-4 8c-.997 1.995.454 4.342 2.684 4.342h20.291c2.23 0 3.681-2.347 2.684-4.342l-4-8A3 3 0 0050.056 47H37.764z" fill="#EEA83D"></path><circle cx="43.91" cy="43" r="2" fill="#F7F7F7"></circle><path d="M70.459 35h11.333c1.058 0 1.833.806 1.833 1.7v21.6c0 .894-.775 1.7-1.833 1.7H70.459c-1.059 0-1.834-.806-1.834-1.7V36.7c0-.894.775-1.7 1.834-1.7z" stroke="#EEA83D" stroke-width="2" stroke-linecap="round" stroke-linejoin="round"></path><circle cx="76.125" cy="55.5" r="1.5" fill="#F7F7F7"></circle><path d="M3.625 23h19.5c1.08 0 2.25 1.12 2.25 2.9v31.2c0 1.78-1.17 2.9-2.25 2.9h-19.5c-1.08 0-2.25-1.12-2.25-2.9V25.9c0-1.78 1.17-2.9 2.25-2.9z" stroke="#EEA83D" stroke-width="2" stroke-linecap="round" stroke-linejoin="round"></path><circle cx="13.375" cy="54" r="2" fill="#F7F7F7"></circle></svg>