<svg viewBox="0 0 70 60" fill="none" xmlns="http://www.w3.org/2000/svg" class="w-full h-full text-primary"><path d="M58 12h3.5v8H58v-8zM58 26h3.5v8H58v-8zM58 40h3.5v8H58v-8zM8.5 12H12v8H8.5v-8zM8.5 26H12v8H8.5v-8zM8.5 40H12v8H8.5v-8z" fill="#EEA83D"></path><g clip-path="url(#perk-reel_svg__clip0_112_9944)"><path d="M28.295 21.436a.25.25 0 01.362-.223l17.128 8.563a.25.25 0 010 .448l-17.128 8.563a.25.25 0 01-.362-.223V21.436z" fill="#F7F7F7" stroke="#F7F7F7" stroke-width="1.5"></path></g><rect x="1" y="1" width="68" height="58" rx="4" stroke="#EEA83D" stroke-width="2"></rect><defs><clipPath id="perk-reel_svg__clip0_112_9944"><path fill="#fff" transform="translate(27.545 19.818)" d="M0 0h20.364v20.364H0z"></path></clipPath></defs></svg>
