<svg viewBox="0 0 60 60" fill="none" xmlns="http://www.w3.org/2000/svg" class="w-full h-full text-primary"><path fill-rule="evenodd" clip-rule="evenodd" d="M31.49 18.481V9.082h3.01v9.399c0 1.805-1.17 3.628-3.01 4.22v2.532h-3.011v-2.53A4.498 4.498 0 0125.5 18.48V9.082h2.979v9.399c0 .764.695 1.48 1.521 1.48.828 0 1.49-.716 1.49-1.48zm-1.484 11.287c-.879 0-1.59-.738-1.59-1.649 0-.91.711-1.648 1.59-1.648.878 0 1.59.737 1.59 1.648 0 .911-.712 1.649-1.59 1.649z" fill="#F7F7F7"></path><path stroke="currentColor" stroke-width="4" d="M30 39.586v7.81"></path><path d="M49.5 9.421a3 3 0 00-3 3v7.313c0 2.39 2.656 3.82 4.65 2.505l6-3.953a3 3 0 001.35-2.505v-3.36a3 3 0 00-3-3h-6z" stroke="currentColor" stroke-width="2"></path><path d="M10.5 9.376a3.045 3.045 0 013.046 3.045v7.313c0 2.425-2.696 3.877-4.721 2.543l-6-3.954a3.045 3.045 0 01-1.37-2.542v-3.36A3.045 3.045 0 014.5 9.376h6z" stroke="currentColor" stroke-width="2.09"></path><path d="M18.682 1h22.636A5.182 5.182 0 0146.5 6.182v21.154c0 1.788-.922 3.45-2.439 4.396l-11.318 7.062a5.182 5.182 0 01-5.486 0l-11.318-7.062a5.182 5.182 0 01-2.439-4.396V6.182A5.182 5.182 0 0118.682 1z" stroke="currentColor" stroke-width="2"></path><mask id="perk-award_svg__a" fill="#fff"><rect x="19.5" y="46.895" width="20" height="13.026" rx="1"></rect></mask><rect x="19.5" y="46.895" width="20" height="13.026" rx="1" stroke="currentColor" stroke-width="4" mask="url(#perk-award_svg__a)"></rect><rect x="14" y="57.916" width="30" height="2.084" rx="1.042" fill="currentColor"></rect><rect x="14" y="57.916" width="30" height="2.084" rx="1.042" stroke="currentColor"></rect></svg>