<svg data-name="Twitter" xmlns="http://www.w3.org/2000/svg" viewBox="0 0 512 512" class="w-5 h-5 laptop:h-6 laptop:w-6 stroke-current fill-current"><title>Twitter</title><path class="twitter_svg____3QeyhOY__st0" d="M501 104c-18.1 8.1-37.5 13.5-57.8 15.9 20.8-12.5 36.7-32.1 44.1-55.6-19.3 11.5-40.9 19.8-63.9 24.5C405 69.2 379 57 349.9 57c-55.6 0-100.4 45.1-100.4 100.4 0 7.8 1 15.4 2.7 23-83.6-4.1-157.5-44-207.2-105-8.6 14.9-13.7 32.1-13.7 50.5 0 34.8 17.6 65.6 44.8 83.8-16.4-.5-32.1-5.1-45.6-12.5v1.2c0 48.7 34.5 89.4 80.6 98.5-8.3 2.2-17.4 3.4-26.5 3.4-6.4 0-12.7-.7-18.9-1.7 12.7 39.9 50 69.1 93.8 69.8-34.3 26.9-77.6 43.1-124.9 43.1-8.1 0-16.2-.5-24-1.5 44.6 28.4 97.2 45.1 154.1 45.1 184.9 0 285.8-153.1 285.8-285.8 0-4.4 0-8.6-.2-13 20.1-14.6 37.2-32.2 50.7-52.3z"></path></svg>