<svg data-name="YouTube" xmlns="http://www.w3.org/2000/svg" viewBox="0 0 512 512" class="w-5 h-5 laptop:h-6 laptop:w-6 stroke-current fill-current"><title>YouTube</title><path class="youtube_svg____36T3A-N__st0" d="M496.2 157.6s-4.8-33.8-19.5-48.7c-18.7-19.6-39.6-19.7-49.2-20.8-68.7-5-171.7-5-171.7-5h-.2s-103 0-171.7 5c-9.6 1.1-30.5 1.2-49.2 20.8-14.7 14.9-19.5 48.7-19.5 48.7s-4.9 39.7-4.9 79.5v37.2c0 39.7 4.9 79.5 4.9 79.5s4.8 33.8 19.5 48.7c18.7 19.6 43.2 18.9 54.1 21 39.3 3.8 166.9 4.9 166.9 4.9s103.2-.2 171.9-5.1c9.6-1.1 30.5-1.2 49.2-20.8 14.7-14.9 19.5-48.7 19.5-48.7s4.9-39.7 4.9-79.5v-37.2c-.1-39.8-5-79.5-5-79.5zM205 319.5V181.6l132.7 69.2-.4.2L205 319.5z"></path></svg>