<svg viewBox="-1 1 18 21" fill="none" xmlns="http://www.w3.org/2000/svg" class="w-5 h-5 laptop:h-6 laptop:w-6 stroke-current fill-current"><title>TikTok</title><path d="M16.43 4.393c-2.04 0-3.7-1.708-3.7-3.807A.578.578 0 0012.16 0H9.11a.578.578 0 00-.57.586v12.866c0 1.234-.976 2.238-2.175 2.238-1.2 0-2.176-1.004-2.176-2.238s.976-2.239 2.176-2.239c.314 0 .57-.262.57-.585V7.489a.578.578 0 00-.57-.585C2.855 6.904 0 9.84 0 13.452 0 17.062 2.855 20 6.365 20c3.51 0 6.365-2.938 6.365-6.548V7.757a7.66 7.66 0 003.7.946c.315 0 .57-.262.57-.586V4.98a.578.578 0 00-.57-.586z"></path></svg>