<svg viewBox="-1 -1 22 22" fill="none" xmlns="http://www.w3.org/2000/svg" class="w-5 h-5 laptop:h-6 laptop:w-6 stroke-current fill-current"><title>Pinterest</title><path clip-rule="evenodd" d="M20 10c0 1.813-.447 3.486-1.342 5.018a9.958 9.958 0 01-3.638 3.64c-1.532.894-3.205 1.34-5.02 1.34-.964 0-1.91-.138-2.839-.416.513-.807.851-1.519 1.016-2.136.078-.294.313-1.21.703-2.747.173.339.49.631.951.88.46.246.955.37 1.484.37 1.051 0 1.989-.297 2.813-.892.824-.595 1.462-1.412 1.914-2.454.452-1.042.677-2.214.677-3.515 0-.99-.258-1.92-.775-2.787s-1.266-1.575-2.246-2.122c-.98-.548-2.087-.821-3.32-.82-.912 0-1.762.125-2.552.377s-1.46.586-2.012 1.002a6.849 6.849 0 00-1.419 1.44 5.968 5.968 0 00-.872 1.686 5.684 5.684 0 00-.28 1.745c0 .902.174 1.697.52 2.383.348.685.856 1.167 1.524 1.445.26.104.425.017.495-.26.017-.061.052-.196.104-.405.052-.208.087-.338.104-.39.053-.2.004-.387-.143-.56-.443-.53-.664-1.185-.664-1.967 0-1.31.454-2.436 1.36-3.378.907-.942 2.095-1.414 3.562-1.414 1.31 0 2.333.357 3.066 1.068.734.712 1.1 1.637 1.1 2.775 0 1.475-.296 2.73-.892 3.763-.594 1.032-1.356 1.549-2.285 1.549-.53 0-.955-.19-1.276-.567-.321-.377-.42-.83-.3-1.36.07-.304.186-.71.346-1.218.16-.508.29-.956.39-1.341.1-.386.15-.714.15-.983 0-.434-.117-.795-.351-1.08-.235-.287-.57-.43-1.003-.43-.539 0-.994.248-1.367.742-.373.495-.56 1.111-.56 1.85 0 .633.108 1.163.324 1.588L6.16 16.862c-.147.607-.205 1.376-.17 2.305-1.787-.79-3.233-2.01-4.335-3.66C.55 13.86 0 12.024 0 10c0-1.815.446-3.488 1.34-5.02a9.953 9.953 0 013.64-3.64C6.512.448 8.186 0 10 0c1.815 0 3.488.447 5.02 1.34a9.95 9.95 0 013.638 3.64C19.553 6.512 20 8.185 20 10z"></path></svg>